#!OML:ASF H:\Punching\Project 1\Capture day 1\Session 1\female.ASF
:FULLY-SPECIFIED
:DEGREES
3280
root 3.70724 14.3468 -0.0466325 13.5949 12.6637 4.20695
lowerback -4.79096 -2.65751 -3.56477
upperback -8.16676 -3.48826 0.152599
thorax -5.59366 -1.52164 2.14572
lowerneck -14.4443 -1.60688 3.31504
upperneck 39.365 -2.80307 -1.87276
head 16.4998 -0.895341 -1.91273
rclavicle 3.28492e-014 3.18055e-015
rhumerus 8.04693 11.605 -65.5529
rradius 134.096
rwrist -7.88825
rhand -32.2578 12.4741
rfingers 7.12502
rthumb -5.49763 -17.4346
lclavicle 3.28492e-014 3.18055e-015
lhumerus 9.30639 -27.0665 72.7386
lradius 136.163
lwrist -0.869104
lhand -24.0847 2.99541
lfingers 7.12502
lthumb 2.39555 32.9617
rfemur -53.0714 -14.045 9.09453
rtibia 52.5082
rfoot -5.68821 -9.60193
rtoes -2.0275
lfemur 3.30741 -12.6937 -19.7883
ltibia 21.4976
lfoot -216.655 210.987
ltoes -7.21683
3281
root 3.70866 14.3479 -0.0484324 13.5971 12.6508 4.18273
lowerback -4.76587 -2.66591 -3.55632
upperback -8.18457 -3.50058 0.16739
thorax -5.62574 -1.52689 2.15815
lowerneck -14.506 -1.89468 2.93054
upperneck 39.6882 -3.22794 -1.64746
head 16.6869 -1.09031 -1.82997
rclavicle 3.80176e-015 -4.37326e-015
rhumerus 7.99034 11.5249 -65.5405
rradius 133.678
rwrist -8.15968
rhand -32.4655 12.381
rfingers 7.12502
rthumb -5.69819 -17.5223
lclavicle 3.80176e-015 -4.37326e-015
lhumerus 9.24957 -26.883 72.7197
lradius 135.307
lwrist -1.00224
lhand -24.6085 3.02324
lfingers 7.12502
lthumb 1.88964 32.9946
rfemur -53.0654 -14.0179 9.11044
rtibia 52.4613
rfoot -5.64908 -9.60731
rtoes -2.0293
lfemur 3.29727 -12.689 -19.7734
ltibia 21.4966
lfoot -216.67 210.99
ltoes -7.17954
3282
root 3.71017 14.3488 -0.0503188 13.5932 12.6352 4.15904
lowerback -4.74153 -2.67697 -3.55139
upperback -8.20331 -3.51639 0.182262
thorax -5.65802 -1.53366 2.1726
lowerneck -14.5496 -2.2006 2.52019
upperneck 40.066 -3.68591 -1.39821
head 16.9066 -1.29775 -1.73923
rclavicle 2.73826e-014 2.66371e-014
rhumerus 7.93457 11.4363 -65.5396
rradius 133.125
rwrist -8.51253
rhand -32.7004 12.2743
rfingers 7.12502
rthumb -5.92497 -17.6228
lclavicle 2.73826e-014 2.66371e-014
lhumerus 9.19695 -26.5885 72.7141
lradius 134.313
lwrist -0.872075
lhand -24.964 3.25883
lfingers 7.12502
lthumb 1.54634 33.233
rfemur -53.0551 -13.9941 9.12671
rtibia 52.4173
rfoot -5.61673 -9.60625
rtoes -2.02806
lfemur 3.29705 -12.6844 -19.7622
ltibia 21.4916
lfoot -216.685 210.998
ltoes -7.15107
3283
root 3.71177 14.3495 -0.0522576 13.5804 12.6173 4.13466
lowerback -4.71938 -2.69036 -3.54843
upperback -8.22274 -3.53523 0.196682
thorax -5.68954 -1.54186 2.18759
lowerneck -14.5616 -2.52133 2.09473
upperneck 40.4946 -4.17208 -1.13517
head 17.1553 -1.51556 -1.64553
rclavicle 3.79927e-014 3.97569e-015
rhumerus 7.87875 11.3371 -65.5563
rradius 132.423
rwrist -8.95311
rhand -32.9316 12.12
rfingers 7.12502
rthumb -6.14816 -17.7708
lclavicle 3.79927e-014 3.97569e-015
lhumerus 9.13984 -26.1872 72.7309
lradius 133.159
lwrist -0.502888
lhand -25.1338 3.64298
lfingers 7.12502
lthumb 1.38231 33.6182
rfemur -53.0368 -13.9745 9.14478
rtibia 52.3757
rfoot -5.5914 -9.59776
rtoes -2.03076
lfemur 3.30988 -12.6802 -19.7541
ltibia 21.4833
lfoot -216.699 211.009
ltoes -7.13173
3284
root 3.71346 14.3501 -0.0542257 13.5596 12.5965 4.11371
lowerback -4.70189 -2.70752 -3.55342
upperback -8.24231 -3.55881 0.211726
thorax -5.71786 -1.55201 2.20741
lowerneck -14.5466 -2.85069 1.66531
upperneck 40.9805 -4.67623 -0.873576
head 17.4394 -1.7397 -1.5561
rclavicle 2.5022e-014 -1.74931e-014
rhumerus 7.82184 11.2289 -65.5916
rradius 131.565
rwrist -9.47413
rhand -33.1287 11.92
rfingers 7.12502
rthumb -6.33847 -17.9652
lclavicle 2.5022e-014 -1.74931e-014
lhumerus 9.06828 -25.6808 72.7763
lradius 131.828
lwrist 0.0453415
lhand -25.1094 4.11719
lfingers 7.12502
lthumb 1.40594 34.0923
rfemur -53.0111 -13.961 9.1609
rtibia 52.3361
rfoot -5.57051 -9.58052
rtoes -2.0415
lfemur 3.33524 -12.6766 -19.754
ltibia 21.4713
lfoot -216.712 211.026
ltoes -7.11685
3285
root 3.71515 14.3506 -0.0561543 13.5295 12.5728 4.09591
lowerback -4.68843 -2.72914 -3.56848
upperback -8.26367 -3.58801 0.229697
thorax -5.74476 -1.56428 2.23569
lowerneck -14.4967 -3.18341 1.23964
upperneck 41.523 -5.18883 -0.625723
head 17.7583 -1.96686 -1.47591
rclavicle -1.36664e-015 1.98785e-015
rhumerus 7.75931 11.1162 -65.6486
rradius 130.549
rwrist -10.0599
rhand -33.2558 11.6542
rfingers 7.12502
rthumb -6.46116 -18.2272
lclavicle -1.36664e-015 1.98785e-015
lhumerus 8.96184 -25.102 72.8553
lradius 130.291
lwrist 0.615076
lhand -24.9771 4.62781
lfingers 7.12502
lthumb 1.53372 34.602
rfemur -52.9757 -13.9508 9.17412
rtibia 52.2977
rfoot -5.55357 -9.55736
rtoes -2.04657
lfemur 3.37346 -12.6712 -19.7609
ltibia 21.4568
lfoot -216.721 211.046
ltoes -7.11034
3286
root 3.71684 14.3511 -0.0581048 13.49 12.5465 4.08197
lowerback -4.67761 -2.75494 -3.59414
upperback -8.28665 -3.62251 0.250684
thorax -5.77082 -1.57845 2.27291
lowerneck -14.4078 -3.51674 0.818466
upperneck 42.1155 -5.70562 -0.394355
head 18.1093 -2.19576 -1.40534
rclavicle 6.37602e-014 4.49253e-014
rhumerus 7.68891 11.0029 -65.7258
rradius 129.377
rwrist -10.6888
rhand -33.2949 11.3622
rfingers 7.12502
rthumb -6.49888 -18.5181
lclavicle 6.37602e-014 4.49253e-014
lhumerus 8.81401 -24.47 72.9658
lradius 128.545
lwrist 1.10458
lhand -24.7769 5.09673
lfingers 7.12502
lthumb 1.72706 35.0695
rfemur -52.9308 -13.9441 9.18376
rtibia 52.2601
rfoot -5.53717 -9.52808
rtoes -2.05794
lfemur 3.4238 -12.6625 -19.7751
ltibia 21.4406
lfoot -216.73 211.067
ltoes -7.08345
3287
root 3.71838 14.3517 -0.0601961 13.443 12.5161 4.07265
lowerback -4.67206 -2.78673 -3.63429
upperback -8.30612 -3.6643 0.279318
thorax -5.78838 -1.59541 2.32569
lowerneck -14.2894 -3.8471 0.3947
upperneck 42.7446 -6.21849 -0.18136
head 18.4893 -2.42484 -1.34255
rclavicle -5.86663e-014 -2.78299e-015
rhumerus 7.6257 10.8974 -65.8149
rradius 128.049
rwrist -11.3236
rhand -33.2386 11.0523
rfingers 7.12502
rthumb -6.44454 -18.8296
lclavicle -5.86663e-014 -2.78299e-015
lhumerus 8.63644 -23.7901 73.1036
lradius 126.62
lwrist 1.45083
lhand -24.52 5.51762
lfingers 7.12502
lthumb 1.9752 35.4882
rfemur -52.879 -13.9353 9.18728
rtibia 52.2224
rfoot -5.51802 -9.49625
rtoes -2.06707
lfemur 3.48203 -12.6491 -19.7968
ltibia 21.4239
lfoot -216.733 211.089
ltoes -7.06196
3288
root 3.71979 14.3524 -0.0624239 13.3866 12.4842 4.06357
lowerback -4.67351 -2.82133 -3.67969
upperback -8.32044 -3.70925 0.311047
thorax -5.79565 -1.61382 2.38405
lowerneck -14.1292 -4.17561 -0.0233706
upperneck 43.3851 -6.72993 0.0106517
head 18.8807 -2.65514 -1.28973
rclavicle -4.00054e-015 -1.63003e-014
rhumerus 7.55656 10.8002 -65.919
rradius 126.573
rwrist -11.9136
rhand -33.111 10.754
rfingers 7.12502
rthumb -6.32136 -19.1317
lclavicle -4.00054e-015 -1.63003e-014
lhumerus 8.43482 -23.0974 73.2524
lradius 124.557
lwrist 1.61225
lhand -24.2439 5.88738
lfingers 7.12502
lthumb 2.2418 35.8553
rfemur -52.8168 -13.9215 9.18722
rtibia 52.1831
rfoot -5.49608 -9.46551
rtoes -2.07134
lfemur 3.54843 -12.628 -19.8197
ltibia 21.4078
lfoot -216.733 211.109
ltoes -7.04551
3289
root 3.72096 14.3532 -0.0649328 13.3233 12.4493 4.05633
lowerback -4.67954 -2.85992 -3.73275
upperback -8.32833 -3.75898 0.346904
thorax -5.79229 -1.63438 2.45045
lowerneck -13.9264 -4.50146 -0.442746
upperneck 44.0046 -7.23697 0.187034
head 19.2631 -2.88714 -1.24168
rclavicle 2.2736e-014 1.74931e-014
rhumerus 7.49063 10.7214 -66.0298
rradius 124.96
rwrist -12.4212
rhand -32.9444 10.4298
rfingers 7.12502
rthumb -6.16053 -19.4606
lclavicle 2.2736e-014 1.74931e-014
lhumerus 8.21605 -22.4085 73.3912
lradius 122.406
lwrist 1.60348
lhand -24.0068 6.16922
lfingers 7.12502
lthumb 2.47082 36.1347
rfemur -52.7468 -13.8976 9.18058
rtibia 52.1413
rfoot -5.4693 -9.43883
rtoes -2.07595
lfemur 3.62016 -12.5982 -19.8451
ltibia 21.393
lfoot -216.73 211.122
ltoes -7.02794
3290
root 3.72187 14.3542 -0.0676755 13.2528 12.4141 4.04647
lowerback -4.69115 -2.90219 -3.78773
upperback -8.32312 -3.81294 0.386929
thorax -5.77086 -1.65745 2.52142
lowerneck -13.6898 -4.82246 -0.852862
upperneck 44.5578 -7.73484 0.344667
head 19.6065 -3.1192 -1.19983
rclavicle 7.85199e-015 -1.94809e-014
rhumerus 7.43273 10.667 -66.143
rradius 123.233
rwrist -12.8037
rhand -32.7883 10.0934
rfingers 7.12502
rthumb -6.00982 -19.8014
lclavicle 7.85199e-015 -1.94809e-014
lhumerus 7.97751 -21.7486 73.5064
lradius 120.27
lwrist 1.50321
lhand -23.7708 6.47686
lfingers 7.12502
lthumb 2.69876 36.4395
rfemur -52.6668 -13.8597 9.17042
rtibia 52.0953
rfoot -5.44013 -9.42246
rtoes -2.07334
lfemur 3.69541 -12.5556 -19.8654
ltibia 21.3797
lfoot -216.722 211.127
ltoes -7.01019
